<?xml version="1.0" encoding="UTF-8"?>
<svg version="1.1" xmlns="http://www.w3.org/2000/svg" width="800" height="800">
<path d="M0,0 L482,0 L501,3 L522,9 L537,15 L553,23 L568,33 L578,41 L588,50 L598,60 L611,77 L620,92 L628,108 L636,132 L640,151 L641,159 L641,641 L638,660 L632,681 L626,696 L618,712 L608,727 L600,737 L591,747 L581,757 L564,770 L549,779 L533,787 L509,795 L490,799 L482,800 L0,800 L-19,797 L-40,791 L-55,785 L-71,777 L-86,767 L-96,759 L-106,750 L-116,740 L-129,723 L-138,708 L-146,692 L-154,668 L-158,649 L-159,641 L-159,159 L-156,140 L-150,119 L-144,104 L-136,88 L-126,73 L-118,63 L-109,53 L-99,43 L-82,30 L-67,21 L-51,13 L-27,5 L-8,1 Z " fill="#A50064" transform="translate(159,0)"/>
<path d="M0,0 L23,0 L35,3 L49,8 L60,14 L64,17 L69,16 L83,8 L97,3 L111,0 L134,0 L153,4 L169,11 L181,19 L189,26 L197,36 L205,50 L211,68 L213,82 L213,246 L142,246 L141,84 L137,76 L130,71 L126,70 L119,70 L111,73 L105,80 L104,83 L103,246 L31,246 L30,85 L27,78 L22,73 L16,70 L8,70 L1,73 L-4,77 L-7,83 L-8,246 L-79,246 L-79,80 L-75,60 L-69,45 L-61,33 L-52,23 L-42,15 L-25,6 L-10,2 Z " fill="#FEFDFE" transform="translate(199,421)"/>
<path d="M0,0 L25,0 L42,4 L57,11 L66,17 L70,16 L87,7 L98,3 L106,1 L115,0 L134,0 L151,3 L163,7 L178,15 L189,24 L197,33 L205,46 L210,57 L214,72 L215,82 L215,245 L144,245 L143,84 L139,76 L134,72 L129,70 L119,70 L111,75 L107,80 L106,82 L105,245 L33,245 L32,83 L27,75 L21,71 L17,70 L8,70 L1,74 L-3,79 L-5,83 L-6,245 L-77,245 L-77,80 L-75,68 L-70,52 L-63,38 L-55,28 L-46,19 L-32,10 L-18,4 Z " fill="#FEFDFE" transform="translate(197,130)"/>
<path d="M0,0 L22,0 L33,1 L48,5 L66,12 L77,18 L91,28 L101,37 L110,48 L117,58 L126,75 L130,86 L133,99 L135,114 L135,138 L132,155 L127,171 L119,187 L110,201 L99,213 L91,221 L78,230 L59,240 L43,245 L30,248 L24,249 L-3,249 L-30,243 L-46,236 L-57,230 L-68,222 L-80,211 L-89,201 L-98,187 L-106,170 L-111,154 L-114,138 L-114,111 L-111,94 L-105,76 L-97,60 L-88,47 L-79,37 L-70,28 L-56,18 L-41,10 L-28,5 L-9,1 Z " fill="#FEFDFE" transform="translate(565,130)"/>
<path d="M0,0 L27,0 L42,3 L59,8 L78,17 L91,26 L101,35 L110,44 L120,58 L128,73 L133,86 L138,111 L138,135 L135,156 L128,176 L119,193 L109,206 L101,215 L90,224 L80,231 L65,239 L45,246 L36,248 L25,249 L3,249 L-16,246 L-31,242 L-48,234 L-63,224 L-75,213 L-83,205 L-92,192 L-97,183 L-103,170 L-108,155 L-111,138 L-111,111 L-109,98 L-104,81 L-94,60 L-84,46 L-73,34 L-63,25 L-47,15 L-30,7 L-15,3 Z " fill="#FEFDFE" transform="translate(562,421)"/>
<path d="M0,0 L20,0 L30,3 L41,9 L52,20 L59,32 L63,47 L63,63 L60,75 L56,85 L47,97 L35,106 L21,111 L-1,111 L-14,107 L-24,100 L-33,91 L-40,78 L-42,72 L-43,65 L-43,43 L-39,31 L-32,19 L-23,10 L-11,3 Z " fill="#A50164" transform="translate(566,490)"/>
<path d="M0,0 L22,0 L36,5 L48,14 L57,26 L62,38 L64,48 L64,63 L60,79 L52,92 L42,102 L29,109 L21,111 L1,111 L-12,107 L-23,100 L-31,92 L-38,80 L-41,72 L-42,65 L-42,46 L-40,36 L-32,20 L-21,9 L-13,4 Z " fill="#A50164" transform="translate(565,199)"/>
</svg>
